<?xml version="1.0" encoding="utf-8"?>
<!-- Generator: Adobe Illustrator 23.0.2, SVG Export Plug-In . SVG Version: 6.00 Build 0)  -->
<svg version="1.1" id="Layer_1" xmlns="http://www.w3.org/2000/svg" xmlns:xlink="http://www.w3.org/1999/xlink" x="0px" y="0px"
	 viewBox="0 0 100 100" enable-background="new 0 0 100 100" xml:space="preserve">
<path fill="#37888C" d="M48.77,6c16.11,0,30.98,8.92,38.64,22.95l7.82-2L88.77,50L72.04,32.88l7.3-1.87
	C72.83,20.56,61.26,14,48.77,14c-19.85,0-36,16.15-36,36c0,21.04,18.66,35.6,36.09,36c14.93,0.36,25.22-10.35,26.35-11.57
	c1.5-1.62,4.03-1.72,5.65-0.22c1.62,1.5,1.72,4.03,0.22,5.65C78.88,82.25,67.11,94,49.58,94c-0.3,0-0.6,0-0.9-0.01
	C27.47,93.51,4.77,75.71,4.77,50C4.77,25.73,24.51,6,48.77,6z"/>
</svg>
